<?xml version="1.0" ?><svg id="Layer_1" style="enable-background:new 0 0 128 128;" version="1.1" viewBox="0 0 128 128" xml:space="preserve" xmlns="http://www.w3.org/2000/svg" xmlns:xlink="http://www.w3.org/1999/xlink"><style type="text/css">
	.st0{fill-rule:evenodd;clip-rule:evenodd;}
	.st1{fill-rule:evenodd;clip-rule:evenodd;fill:#7ACED7;}
</style><g id="XMLID_5_"><path class="st0" d="M30.4,52.4c0-0.3,0-0.7,0-1c0-16.4,13.3-29.6,29.6-29.6s29.6,13.3,29.6,29.6c0,0.3,0,0.7,0,1   h11.1c15,0,27.3,12.3,27.3,27.3c0,15-12.3,27.3-27.3,27.3H27.3C12.3,107,0,94.7,0,79.7c0-15,12.3-27.3,27.3-27.3H30.4L30.4,52.4z    M27.3,103h73.4c12.8,0,23.3-10.5,23.3-23.3v0c0-12.8-10.5-23.3-23.3-23.3H85.1c0.3-1.6,0.5-3.3,0.5-5c0-14.2-11.5-25.6-25.6-25.6   S34.4,37.3,34.4,51.4c0,1.7,0.2,3.4,0.5,5h-7.6C14.5,56.4,4,66.9,4,79.7v0C4,92.5,14.5,103,27.3,103z" id="XMLID_7_"/><path class="st1" d="M27.3,103h73.4c12.8,0,23.3-10.5,23.3-23.3v0c0-12.8-10.5-23.3-23.3-23.3H85.1   c0.3-1.6,0.5-3.3,0.5-5c0-14.2-11.5-25.6-25.6-25.6S34.4,37.3,34.4,51.4c0,1.7,0.2,3.4,0.5,5h-7.6C14.5,56.4,4,66.9,4,79.7v0   C4,92.5,14.5,103,27.3,103z" id="XMLID_2_"/></g></svg>