<svg height="512pt" viewBox="-11 0 512 512" width="512pt" xmlns="http://www.w3.org/2000/svg"><path d="m490 256c0 135.308594-109.691406 245-245 245s-245-109.691406-245-245 109.691406-245 245-245 245 109.691406 245 245zm0 0" fill="#ffe49f"/><path d="m406.773438 440c-8.210938 7.226562-16.914063 13.910156-26.046876 20h-271.453124c-9.132813-6.089844-17.832032-12.773438-26.046876-20h151.773438v-200h20v200zm0 0" fill="#008c6c"/><path d="m301.160156 452c0 33.136719-26.863281 60-60 60-33.136718 0-60-26.863281-60-60s26.863282-60 60-60c33.136719 0 60 26.863281 60 60zm0 0" fill="#54d680"/><path d="m301.160156 452c0 10.921875-2.929687 21.148438-8.027344 29.96875-8.824218 5.097656-19.050781 8.03125-29.972656 8.03125-33.136718 0-60-26.863281-60-60 0-10.921875 2.933594-21.148438 8.03125-29.96875 8.820313-5.097656 19.050782-8.03125 29.96875-8.03125 33.136719 0 60 26.863281 60 60zm0 0" fill="#46e093"/><path d="m304.445312 432.214844-55.394531 55.390625c-2.929687 2.929687-6.769531 4.394531-10.605469 4.394531-3.839843 0-7.675781-1.464844-10.605468-4.394531l-28.285156-28.28125c-5.859376-5.859375-5.859376-15.355469 0-21.214844 5.855468-5.855469 15.355468-5.855469 21.214843 0l17.675781 17.675781 44.789063-44.785156c5.855469-5.859375 15.355469-5.859375 21.210937 0 5.859376 5.859375 5.859376 15.355469 0 21.214844zm0 0" fill="#008c6c"/><path d="m304.445312 411c5.855469 5.855469 5.859376 15.355469 0 21.210938l-43.808593 43.8125c-2.929688 2.925781-6.769531 4.390624-10.609375 4.390624-3.835938 0-7.675782-1.460937-10.605469-4.390624l-28.28125-28.285157c-3.71875-3.71875-5.070313-8.902343-4.066406-13.695312 4.789062-1.003907 9.976562.347656 13.691406 4.066406l17.679687 17.675781 44.789063-44.785156c5.855469-5.859375 15.355469-5.859375 21.210937 0zm0 0" fill="#00b96f"/><path d="m375 370h-260c-11.046875 0-20-8.953125-20-20v-330c0-11.046875 8.953125-20 20-20h260c11.046875 0 20 8.953125 20 20v330c0 11.046875-8.953125 20-20 20zm0 0" fill="#006cbc"/><path d="m395 20v330c0 11.046875-8.953125 20-20 20h-236c-11.046875 0-20-8.953125-20-20v-47.5c0-5.523438 4.476562-10 10-10h240c5.742188 0 10.355469-4.839844 9.980469-10.664062-.34375-5.316407-4.996094-9.335938-10.324219-9.335938h-239.65625c-5.523438 0-10-4.476562-10-10v-57.5c0-5.523438 4.476562-10 10-10h240c5.742188 0 10.355469-4.839844 9.980469-10.664062-.34375-5.316407-4.996094-9.335938-10.324219-9.335938h-239.65625c-5.523438 0-10-4.476562-10-10v-57.5c0-5.523438 4.476562-10 10-10h240c5.742188 0 10.355469-4.839844 9.980469-10.664062-.34375-5.316407-4.996094-9.335938-10.324219-9.335938h-239.65625c-5.523438 0-10-4.476562-10-10v-47.5c0-11.046875 8.953125-20 20-20h236c11.046875 0 20 8.953125 20 20zm0 0" fill="#08c"/><path d="m159 126.25v20c0 5.523438-4.476562 10-10 10s-10-4.476562-10-10v-20c0-5.523438 4.476562-10 10-10s10 4.476562 10 10zm30 87.5c-5.523438 0-10 4.476562-10 10v20c0 5.523438 4.476562 10 10 10s10-4.476562 10-10v-20c0-5.523438-4.476562-10-10-10zm-40-193.75c-5.523438 0-10 4.476562-10 10v20c0 5.523438 4.476562 10 10 10s10-4.476562 10-10v-20c0-5.523438-4.476562-10-10-10zm0 290c-5.523438 0-10 4.476562-10 10v20c0 5.523438 4.476562 10 10 10s10-4.476562 10-10v-20c0-5.523438-4.476562-10-10-10zm0-96.25c-5.523438 0-10 4.476562-10 10v20c0 5.523438 4.476562 10 10 10s10-4.476562 10-10v-20c0-5.523438-4.476562-10-10-10zm40 96.25c-5.523438 0-10 4.476562-10 10v20c0 5.523438 4.476562 10 10 10s10-4.476562 10-10v-20c0-5.523438-4.476562-10-10-10zm0-193.75c-5.523438 0-10 4.476562-10 10v20c0 5.523438 4.476562 10 10 10s10-4.476562 10-10v-20c0-5.523438-4.476562-10-10-10zm40 0c-5.523438 0-10 4.476562-10 10v20c0 5.523438 4.476562 10 10 10s10-4.476562 10-10v-20c0-5.523438-4.476562-10-10-10zm0-96.25c-5.523438 0-10 4.476562-10 10v20c0 5.523438 4.476562 10 10 10s10-4.476562 10-10v-20c0-5.523438-4.476562-10-10-10zm0 193.75c-5.523438 0-10 4.476562-10 10v20c0 5.523438 4.476562 10 10 10s10-4.476562 10-10v-20c0-5.523438-4.476562-10-10-10zm-40-193.75c-5.523438 0-10 4.476562-10 10v20c0 5.523438 4.476562 10 10 10s10-4.476562 10-10v-20c0-5.523438-4.476562-10-10-10zm40 290c-5.523438 0-10 4.476562-10 10v20c0 5.523438 4.476562 10 10 10s10-4.476562 10-10v-20c0-5.523438-4.476562-10-10-10zm0 0" fill="#0069a3"/><path d="m329 330c0 5.523438-4.476562 10-10 10s-10-4.476562-10-10 4.476562-10 10-10 10 4.476562 10 10zm-10-106.25c-5.523438 0-10 4.476562-10 10s4.476562 10 10 10 10-4.476562 10-10-4.476562-10-10-10zm-40-97.5c-5.523438 0-10 4.476562-10 10s4.476562 10 10 10 10-4.476562 10-10-4.476562-10-10-10zm80-76.25c5.523438 0 10-4.476562 10-10s-4.476562-10-10-10-10 4.476562-10 10 4.476562 10 10 10zm0 173.75c-5.523438 0-10 4.476562-10 10s4.476562 10 10 10 10-4.476562 10-10-4.476562-10-10-10zm0 96.25c-5.523438 0-10 4.476562-10 10s4.476562 10 10 10 10-4.476562 10-10-4.476562-10-10-10zm-40-193.75c-5.523438 0-10 4.476562-10 10s4.476562 10 10 10 10-4.476562 10-10-4.476562-10-10-10zm0-96.25c-5.523438 0-10 4.476562-10 10s4.476562 10 10 10 10-4.476562 10-10-4.476562-10-10-10zm0 0" fill="#7ed4f2"/><path d="m289 40c0 5.523438-4.476562 10-10 10s-10-4.476562-10-10 4.476562-10 10-10 10 4.476562 10 10zm70 86.25c-5.523438 0-10 4.476562-10 10s4.476562 10 10 10 10-4.476562 10-10-4.476562-10-10-10zm-80 97.5c-5.523438 0-10 4.476562-10 10s4.476562 10 10 10 10-4.476562 10-10-4.476562-10-10-10zm0 96.25c-5.523438 0-10 4.476562-10 10s4.476562 10 10 10 10-4.476562 10-10-4.476562-10-10-10zm0 0" fill="#fff5f5"/></svg>